<?xml version="1.0" encoding="utf-8"?>
<!-- Generator: Adobe Illustrator 24.0.1, SVG Export Plug-In . SVG Version: 6.00 Build 0)  -->
<svg version="1.1" id="Layer_1" xmlns="http://www.w3.org/2000/svg" xmlns:xlink="http://www.w3.org/1999/xlink" x="0px" y="0px"
	 viewBox="0 0 1500 1500" style="enable-background:new 0 0 1500 1500;" xml:space="preserve">
<style type="text/css">
	.st0{fill:url(#SVGID_1_);}
	.st1{fill:#AF69AA;}
</style>
<linearGradient id="SVGID_1_" gradientUnits="userSpaceOnUse" x1="448.9452" y1="1205.3579" x2="1089.058" y2="96.6499">
	<stop  offset="0" style="stop-color:#3C51A2"/>
	<stop  offset="0.3358" style="stop-color:#99479A"/>
	<stop  offset="1" style="stop-color:#A94B70"/>
</linearGradient>
<path class="st0" d="M1285.07,283.18c-2.93,71.64-22.23,139.64-47.25,206.15c-50.13,133.21-113.58,259.54-197.3,375.08
	c-20.7,28.57-41.07,59.39-72,76.45c-23.43,12.92-23.68,25.64-20.07,48.39c9.66,60.79-2.74,118.67-35.25,171
	c-50.72,81.65-121.2,137.83-215.69,161.5c-12.02,3.01-24.3,2.67-36.29,1.39c-22.13-2.36-32.81-15.44-33.65-37.73
	c-1.44-38.18,11.53-74.07,17.02-111.14c2.32-15.67,3.74-31.31-1.18-46.88c-6.23-19.69-18.33-32.03-39.7-34.51
	c-60.9-7.09-103.1-38.85-125.81-96.12c-2.89-7.3-6.76-14.21-10.18-21.3c-19.03-39.35-39.8-48.44-82.46-36.12
	c-28.51,8.24-53.85,24.77-82.9,31.57c-12.35,2.89-24.59,6.61-37.1,8.36c-31.97,4.46-49.71-11.73-50.12-44
	c-0.23-17.88,3.39-35.07,8.82-51.79c14.96-45.98,33.53-90.58,52.4-135.08c31.99-75.45,92.78-110.14,170.08-121.95
	c27.57-4.21,55.24-7.79,82.88-11.5c9.33-1.25,16.49-4.29,22.21-13.08c135.56-208.83,329.61-336.53,565.25-406.16
	c19.13-5.65,38.46-11.06,58.05-14.7c70.11-13.02,106.43,16.12,110.23,87.57C1285.3,273.44,1285.07,278.31,1285.07,283.18z
	 M928.22,667.27c55.96,0.73,99.48-43.39,101.97-99.46c2.51-56.59-37.11-106.37-107.09-107.62c-55.1-0.99-96.24,44.22-96.28,103.93
	C826.79,624.18,868.37,666.49,928.22,667.27z"/>
<path class="st1" d="M386.89,1270.76c-62.74,5.04-79.37-30.83-72.05-84.47c7.75-56.81,31.29-107.77,67.89-152.28
	c3.42-4.16,7.65-7.99,12.23-10.77c10.81-6.58,19.11-5.65,23.04,8.49c4.12,14.8,0.99,28.78-2.94,42.88
	c-6.65,23.88-14.66,47.47-13.3,72.87c1.18,21.93,9.65,30.2,31.8,30.02c23.08-0.18,43.27-10.55,63.99-18.67
	c16.86-6.61,33.58-13.81,49.6-22.19c10.8-5.65,12.35-0.93,12.9,7.99c1.21,19.61-5.48,36.58-16.73,52.23
	C510.26,1242.85,443.79,1274.33,386.89,1270.76z"/>
</svg>
