<svg id="Ebene_1" data-name="Ebene 1" xmlns="http://www.w3.org/2000/svg" viewBox="0 0 604.48 90.82"><defs><style>.cls-1{fill:#15162e;}.cls-2{fill:#ee7baa;}.cls-3{fill:#292b5e;}.cls-4{fill:#fbfdfc;}.cls-5{fill:#f6a52b;}.cls-6{fill:#afafd1;}.cls-7{fill:#ffd852;}</style></defs><path class="cls-1" d="M115.66,33.56a17,17,0,0,1,1.41-6.89,18,18,0,0,1,9.45-9.45,17,17,0,0,1,6.89-1.41h27.16V27.66H133.41a6,6,0,0,0-2.31.45,6.21,6.21,0,0,0-1.88,1.26A6,6,0,0,0,128,31.25a5.78,5.78,0,0,0-.46,2.31,5.87,5.87,0,0,0,.46,2.33,5.76,5.76,0,0,0,1.25,1.9,5.86,5.86,0,0,0,1.88,1.26,5.78,5.78,0,0,0,2.31.46h11.85a17.44,17.44,0,0,1,6.91,1.38,17.69,17.69,0,0,1,9.46,9.45,18,18,0,0,1,0,13.81,17.76,17.76,0,0,1-3.8,5.63,18,18,0,0,1-5.66,3.82,17.11,17.11,0,0,1-6.91,1.4H119V63.16h26.29a5.71,5.71,0,0,0,2.31-.46,5.82,5.82,0,0,0,3.59-5.44,6,6,0,0,0-.45-2.32,5.89,5.89,0,0,0-5.45-3.59H133.41a17,17,0,0,1-6.89-1.4,18.15,18.15,0,0,1-5.63-3.82,18,18,0,0,1-3.82-5.65A17.16,17.16,0,0,1,115.66,33.56Z"/><path class="cls-1" d="M217.46,75H205.61V63.16H181.92V75H170.11V39.51A23.07,23.07,0,0,1,172,30.28,24.13,24.13,0,0,1,177,22.75a23.71,23.71,0,0,1,7.52-5.08,23.81,23.81,0,0,1,18.45,0A23.81,23.81,0,0,1,215.6,30.28a23.07,23.07,0,0,1,1.86,9.23ZM205.61,51.35V39.51a11.58,11.58,0,0,0-.93-4.61,11.85,11.85,0,0,0-6.32-6.31,11.84,11.84,0,0,0-9.2,0,11.85,11.85,0,0,0-6.32,6.31,11.75,11.75,0,0,0-.92,4.61V51.35Z"/><path class="cls-1" d="M275.08,75H262.41L239.58,36V75H227.73V15.81h12.68l22.82,39v-39h11.85Z"/><path class="cls-1" d="M282.59,33.56A17,17,0,0,1,284,26.67a17.9,17.9,0,0,1,9.45-9.45,17,17,0,0,1,6.89-1.41H327.5V27.66H300.34a6,6,0,0,0-2.31.45,6.09,6.09,0,0,0-1.88,1.26,6.21,6.21,0,0,0-1.26,1.88,6,6,0,0,0-.45,2.31,6,6,0,0,0,.45,2.33,6,6,0,0,0,1.26,1.9,5.9,5.9,0,0,0,4.19,1.72h11.85a17.44,17.44,0,0,1,6.91,1.38,17.69,17.69,0,0,1,9.46,9.45,18,18,0,0,1,0,13.81,17.87,17.87,0,0,1-9.46,9.45,17.11,17.11,0,0,1-6.91,1.4H285.9V63.16h26.29a5.71,5.71,0,0,0,2.31-.46,5.82,5.82,0,0,0,3.59-5.44,6,6,0,0,0-.45-2.32,5.89,5.89,0,0,0-5.45-3.59H300.34a17,17,0,0,1-6.89-1.4A17.94,17.94,0,0,1,284,40.48,17.16,17.16,0,0,1,282.59,33.56Z"/><path class="cls-1" d="M349.55,75H337.7V15.81h11.85v23.7H373.2V15.81h11.85V75H373.2V51.35H349.55Z"/><path class="cls-1" d="M442.71,51.35a23.07,23.07,0,0,1-1.86,9.23,23.64,23.64,0,0,1-5.07,7.51,24.2,24.2,0,0,1-7.54,5.06,23.93,23.93,0,0,1-18.45,0,23.67,23.67,0,0,1-12.57-12.57,23.06,23.06,0,0,1-1.85-9.23V15.81h11.8V51.35a11.37,11.37,0,0,0,.93,4.58,11.88,11.88,0,0,0,6.32,6.3,11.84,11.84,0,0,0,9.2,0,12.14,12.14,0,0,0,3.78-2.54,11.94,11.94,0,0,0,2.54-3.76,11.53,11.53,0,0,0,.92-4.58V15.81h11.85Z"/><path class="cls-1" d="M488.49,75H476.64V15.81h11.85Z"/><path class="cls-1" d="M546.81,75H534.14L511.32,36V75H499.47V15.81h12.67l22.83,39v-39h11.84Z"/><path class="cls-1" d="M604.48,51.35a23.07,23.07,0,0,1-1.86,9.23,23.67,23.67,0,0,1-5.08,7.51A24,24,0,0,1,590,73.15a23.93,23.93,0,0,1-18.45,0A23.67,23.67,0,0,1,559,60.58a23.07,23.07,0,0,1-1.86-9.23V15.81h11.81V51.35a11.37,11.37,0,0,0,.93,4.58,11.78,11.78,0,0,0,2.54,3.76,12,12,0,0,0,3.77,2.54,11.87,11.87,0,0,0,9.21,0,12.14,12.14,0,0,0,3.78-2.54,11.75,11.75,0,0,0,2.53-3.76,11.37,11.37,0,0,0,.93-4.58V15.81h11.85Z"/><path class="cls-2" d="M16.76,78.92a6.15,6.15,0,0,1-1.92-1.48,42.8,42.8,0,0,1-6.77-7.58,44.83,44.83,0,0,1-3.9-6.75,43.8,43.8,0,0,1-2.31-6A43.21,43.21,0,0,1,.34,49.87,44.82,44.82,0,0,1,2.56,29.46a42.64,42.64,0,0,1,4.18-8.59,49.09,49.09,0,0,1,5-6.5A44.13,44.13,0,0,1,19.11,7.9a42.05,42.05,0,0,1,6.14-3.55A42.64,42.64,0,0,1,35.6.87,44.22,44.22,0,0,1,59.88,2.82a44.51,44.51,0,0,1,13,7.62,43.81,43.81,0,0,1,7.15,7.63,43.34,43.34,0,0,1,5.57,10.08,44.74,44.74,0,0,1,2.81,21.11,42.18,42.18,0,0,1-1.85,8.59,46.92,46.92,0,0,1-3.12,7.38,44.33,44.33,0,0,1-4,6.17,43.21,43.21,0,0,1-6.16,6.52c-.37.31-.66.76-1.19.85-.16-.24,0-.42.14-.6a26.66,26.66,0,0,0,2.49-4.73,21.39,21.39,0,0,0,1.39-5.75,23,23,0,0,0-.78-9.1c-.68-2.47-1.45-4.91-2.34-7.31a46.45,46.45,0,0,0-2.59-6.08,2.06,2.06,0,0,1-.22-1.36c.24-1.51.42-3,.57-4.56.18-1.78.28-3.57.4-5.37s.09-3.67,0-5.51a23.9,23.9,0,0,0-.71-5.32,13.7,13.7,0,0,0-.87-2.65.66.66,0,0,1-.11-.49c.11,0,.11-.12,0-.3a3.75,3.75,0,0,0-2.19-2.07,2.1,2.1,0,0,0-1.65-.13c-.32.14-.73,0-1.08.15a10.89,10.89,0,0,0-3.69,1.62,24.11,24.11,0,0,0-3.22,2.58,41.09,41.09,0,0,0-3.48,3.75c-.36.43-.49.49-1,.24a27.06,27.06,0,0,0-3.75-1.53,21.34,21.34,0,0,0-4.8-1,21.81,21.81,0,0,0-6.65.41,22.87,22.87,0,0,0-6.52,2.6c-.23.14-.47.26-.69.4a.62.62,0,0,1-.85-.08c-.32-.29-.65-.58-1-.88a33.88,33.88,0,0,0-5.3-4.26,12.41,12.41,0,0,0-4.33-1.92,5.41,5.41,0,0,0-2.53,0A4.2,4.2,0,0,0,14,22.2a12.18,12.18,0,0,0-.83,3.87c0,.67-.06,1.34-.06,2a41.36,41.36,0,0,0,.36,5.1c.24,2,.58,4,1,6,.44,2.17.9,4.34,1.51,6.47a3,3,0,0,1-.06,1.91A67.39,67.39,0,0,0,13.83,55q-.6,2.77-1.07,5.6a23.89,23.89,0,0,0-.32,5.6A23,23,0,0,0,15,75.52a28.41,28.41,0,0,0,1.68,2.8C16.76,78.5,16.93,78.68,16.76,78.92Z"/><path class="cls-3" d="M16.76,78.92c0-.28-.2-.45-.34-.65a23.75,23.75,0,0,1-3.74-18.09A81.51,81.51,0,0,1,16,46.84a1.56,1.56,0,0,0-.13-1A85.19,85.19,0,0,1,13.07,30.4a22.39,22.39,0,0,1,.35-6.88c.9-3.68,3.46-5.1,7-3.84a23.47,23.47,0,0,1,7.46,4.81c.74.65,1.45,1.34,2.15,2a.39.39,0,0,0,.59.06,23.12,23.12,0,0,1,9.47-3.43,22.73,22.73,0,0,1,12.62,2.23c1,.48,1,.48,1.72-.37,2.31-2.69,4.75-5.23,8-6.84a9.58,9.58,0,0,1,2.5-.79A6.28,6.28,0,0,0,66,17.32a2.73,2.73,0,0,1,1.64.44,4.83,4.83,0,0,1,1.76,1.66s0,.11.08.16a.26.26,0,0,1,0,.23,18.16,18.16,0,0,1,1.82,7.51A80.49,80.49,0,0,1,70.37,44a3.17,3.17,0,0,0,.53,1.8A70.85,70.85,0,0,1,76,60.57a22.64,22.64,0,0,1-3.71,17.87c-.07.1-.21.18-.15.33h0s0,.12-.09.16h0a.14.14,0,0,1-.11.06,31,31,0,0,1-3.63,4,28.58,28.58,0,0,1-8.85,5.32,43.46,43.46,0,0,1-13.49,2.52,45.39,45.39,0,0,1-11.51-.87c-.66-.14-1.3-.38-2-.53A27.2,27.2,0,0,1,17,79.18c-.06,0-.06-.13-.12-.17h0c0-.06-.12,0-.15-.1Z"/><path class="cls-2" d="M72,78.93c-.07-.11,0-.15.09-.16S72.12,78.92,72,78.93Z"/><path class="cls-2" d="M16.75,78.92c.12-.08.13,0,.15.1S16.74,79.05,16.75,78.92Z"/><path class="cls-2" d="M16.89,79l.12.17C16.89,79.19,16.81,79.16,16.89,79Z"/><path class="cls-2" d="M71.9,79l.11-.06C72,79,72,79.06,71.9,79Z"/><path class="cls-4" d="M71.57,51.83a40.32,40.32,0,0,1,1.58,4.52c.34,1.07.62,2.16.93,3.25,0,0,0,.06,0,.1l.11.52c-.1.07-.23.1-.2.27a2.83,2.83,0,0,1-.18,1.15A24.8,24.8,0,0,1,68.19,72.4a25.49,25.49,0,0,1-5.62,4.79,31.86,31.86,0,0,1-9.25,3.9,47.63,47.63,0,0,1-6.58,1.13c-.89.1-1.78.13-2.67.2-1.26.1-2.52.07-3.78,0a35.73,35.73,0,0,1-6.18-.59A32.39,32.39,0,0,1,28,80.18a25.85,25.85,0,0,1-7.16-4.3,25.31,25.31,0,0,1-5.55-6.69,10.66,10.66,0,0,1-1.34-3A21.38,21.38,0,0,1,14,62.22a20.73,20.73,0,0,1,.49-3.33c.38-1.54.66-3.11,1-4.67,0-.07.09-.12.14-.18a7.39,7.39,0,0,1,3.75.85,20.85,20.85,0,0,1,4.32,3c.69.58,1.35,1.18,2.05,1.73a2,2,0,0,0,1.74.53,2.29,2.29,0,0,0,1.14-.67A15.29,15.29,0,0,0,30.61,57a28.44,28.44,0,0,1,3.67-4.72,13.82,13.82,0,0,1,4-2.73,12.43,12.43,0,0,1,5.5-1.17,13.47,13.47,0,0,1,5,1.15,16.6,16.6,0,0,1,5.85,4.38c1,1.17,2,2.43,3.08,3.58a7.14,7.14,0,0,0,1.23,1,1.83,1.83,0,0,0,2.41-.22c.57-.53,1.11-1.08,1.64-1.65a24.13,24.13,0,0,1,3.56-3.21A8.76,8.76,0,0,1,71,51.74,1,1,0,0,1,71.57,51.83Z"/><path class="cls-5" d="M71.57,51.83a9.11,9.11,0,0,0-4.77,1.63,28.68,28.68,0,0,0-4.15,3.79c-.27.27-.53.55-.8.81-1.28,1.25-2.3,1.27-3.62.06A54,54,0,0,1,54.61,54a15,15,0,0,0-10.12-5.49,12.64,12.64,0,0,0-9,2.85,24.17,24.17,0,0,0-5,6A16.92,16.92,0,0,1,29,59.34c-1.24,1.34-2.25,1.35-3.64.16a36.39,36.39,0,0,0-5.22-4A8.8,8.8,0,0,0,16,54.16a1.15,1.15,0,0,1-.32-.12,16.13,16.13,0,0,1,1-3.78,10.12,10.12,0,0,0,.25-7,59.4,59.4,0,0,1-2.34-16c0-.14,0-.27,0-.4a.17.17,0,0,0,.07-.14,4.39,4.39,0,0,1,2.54-3.54,4.53,4.53,0,0,1,3.28,0,15.75,15.75,0,0,1,4.76,2.71,41.13,41.13,0,0,1,3.88,3.46c.47.47.93.95,1.37,1.46.29.35.33.35.71.09a24.14,24.14,0,0,1,5.91-3.09,12,12,0,0,1,2.2-.61c.36-.06.51.05.52.39A2.38,2.38,0,0,0,41.68,30,7.06,7.06,0,0,0,46.2,30a4.71,4.71,0,0,0,2-1.11,2.6,2.6,0,0,0,.63-1c.12-.38.24-.45.64-.39a10.14,10.14,0,0,1,1.72.55,20.81,20.81,0,0,1,3.09,1.47.44.44,0,0,0,.68-.14,43.19,43.19,0,0,1,4.82-5.56,15.72,15.72,0,0,1,4.63-3.28,4.61,4.61,0,0,1,3-.37c.08,0,.14.09.23.08v0s0,.07.08.06v.08a.16.16,0,0,0,.12.12A6.92,6.92,0,0,1,69.25,24a42.84,42.84,0,0,1,.44,10.67,94.83,94.83,0,0,1-1,9.81A2,2,0,0,0,69,45.7,52.88,52.88,0,0,1,71.57,51.83Z"/><path class="cls-6" d="M13.93,66.14c.45.9.87,1.81,1.35,2.69A24.63,24.63,0,0,0,20.06,75a25.41,25.41,0,0,0,9.12,5.45,32.69,32.69,0,0,0,9,1.78,49.25,49.25,0,0,0,14.62-1.17A28.71,28.71,0,0,0,67.7,72.71a24.54,24.54,0,0,0,6.17-11.87c0-.18,0-.36.07-.54S74,60.11,74,60l.2.21,0,.2a9,9,0,0,0,.2,1.54,14.3,14.3,0,0,1,.17,1.59,22.31,22.31,0,0,1-.72,7,18.81,18.81,0,0,1-1.25,3.3A8.26,8.26,0,0,1,72,75.24a15.93,15.93,0,0,1-3.41,4.87,27.38,27.38,0,0,1-14.16,7.56,49.33,49.33,0,0,1-15,.94c-6.19-.51-12-2.26-16.84-6.28a22.59,22.59,0,0,1-8.46-14.28C14,67.42,14,66.78,13.93,66.14Z"/><path class="cls-7" d="M67.34,20.24C64.83,20,63,21.34,61.18,22.8A37.81,37.81,0,0,0,55,29.62c-.19.26-.33.3-.61.14a20.72,20.72,0,0,0-4.94-2.11c-.3-.08-.38,0-.47.29a3.15,3.15,0,0,1-2.13,2,7.15,7.15,0,0,1-5.23.12c-1-.38-2.2-1.21-1.89-2.65,0-.17,0-.24-.21-.2a18.94,18.94,0,0,0-5.25,1.93,20.18,20.18,0,0,0-3.22,2c-.24.19-.37,0-.49-.16a42.25,42.25,0,0,0-3.67-3.66,19.44,19.44,0,0,0-6.18-4c-2.91-1-5.12.17-5.89,3.15,0,.1-.06.2-.09.3-.12-.11-.08-.25-.06-.37.14-.83.22-1.67.43-2.5a6.66,6.66,0,0,1,.73-1.58v0A4.18,4.18,0,0,1,17,21.53a4.41,4.41,0,0,1,2.76.06l.6.17h0A26,26,0,0,1,22.9,23h0a4,4,0,0,0,.75.55l.36.24c0,.05.12,0,.16.08h0a1.55,1.55,0,0,0,.64.47h0a1.21,1.21,0,0,0,.63.48h0a6.17,6.17,0,0,0,1.27,1.06h0c0,.17.21.2.33.28h0c.12.15.21.32.42.36h0c0,.12,0,.16.15.13l0,0c-.07.15.09.07.11.12h0a26.13,26.13,0,0,0,2.12,2.09c.51.35.9,0,1.29-.24a.09.09,0,0,0,.1,0s0,0,0,0l.12-.09c.06,0,.1,0,.1-.06l.13-.08c.07,0,.11,0,.13-.07l0,0a.33.33,0,0,0,.37-.22h0a17.45,17.45,0,0,0,1.79-.88,20.12,20.12,0,0,1,8.55-2,21.67,21.67,0,0,1,5.62.67,5.22,5.22,0,0,1,.56.18l.44.11c1.12.42,2.24.81,3.3,1.33.36.17.71.34,1,.53a.93.93,0,0,0,1.36-.28q.48-.63.93-1.26h0A15.16,15.16,0,0,0,57,25,22.16,22.16,0,0,1,59,23c.52-.46,1.06-.88,1.6-1.31v0l0,0h0c.59-.34,1.12-.77,1.68-1.14h0a15.8,15.8,0,0,1,2-.85,3.4,3.4,0,0,1,2.75.28C67.21,20,67.37,20.05,67.34,20.24Z"/><path class="cls-4" d="M72,75.24a29.32,29.32,0,0,0,1.74-4.32A23.35,23.35,0,0,0,74.45,62a5.55,5.55,0,0,1-.17-1.62,20.33,20.33,0,0,1-1.83,14.19C72.33,74.84,72.33,75.21,72,75.24Z"/><path class="cls-6" d="M48.62,26a30.09,30.09,0,0,0-3.9-.72,21.68,21.68,0,0,0-6.52.45,27.39,27.39,0,0,0-5.29,2c-.26.13-.47.4-.81.33a20.52,20.52,0,0,1,9.36-2.95,20.08,20.08,0,0,1,6.81.71C48.39,25.83,48.57,25.81,48.62,26Z"/><path class="cls-6" d="M60.61,21.64a6.18,6.18,0,0,1-1.51,1.42,31.37,31.37,0,0,0-3,3.1c-.11.13-.2.28-.4.26A23.68,23.68,0,0,1,60.61,21.64Z"/><path class="cls-6" d="M55.7,26.42c-.3,1-1.36,1.93-2.05,1.7s-1-.53-1.59-.76c-1-.44-2-.84-3-1.26a11.3,11.3,0,0,1,2.65.94c.62.27,1.23.58,1.83.9a.77.77,0,0,0,1.12-.25C55,27.25,55.35,26.84,55.7,26.42Z"/><path class="cls-6" d="M67.34,20.24a2.92,2.92,0,0,0-2.87-.54c-.74.21-1.44.53-2.16.8,1.47-.86,3-1.54,4.69-.7a3.93,3.93,0,0,1,.59.44Z"/><path class="cls-6" d="M20.38,21.76c-.68,0-1.3-.34-2-.35a3.1,3.1,0,0,0-2.33.82,1.23,1.23,0,0,1-.23.11,3,3,0,0,1,3.22-1A3.51,3.51,0,0,1,20.38,21.76Z"/><path class="cls-6" d="M15.82,22.36a12.77,12.77,0,0,0-.74,1.89,18.34,18.34,0,0,0-.36,2.56h-.1a9.07,9.07,0,0,1,.88-4A3.11,3.11,0,0,1,15.82,22.36Z"/><path class="cls-6" d="M22.9,23c-.68-.09-1.16-.6-1.77-.84-.26-.1-.6-.13-.76-.43A6.64,6.64,0,0,1,22.9,23Z"/><path class="cls-6" d="M29.84,28.88c-.4,0-.57-.39-.78-.63-.44-.49-1-.83-1.34-1.46A18.19,18.19,0,0,1,29.84,28.88Z"/><path class="cls-6" d="M62.31,20.49a4.82,4.82,0,0,1-1.68,1.14A7.11,7.11,0,0,1,62.31,20.49Z"/><path class="cls-6" d="M26.7,25.89a2.45,2.45,0,0,1-1.27-1.06A6.44,6.44,0,0,1,26.7,25.89Z"/><path class="cls-6" d="M23.64,23.57c-.29-.13-.63-.18-.75-.55A1.65,1.65,0,0,1,23.64,23.57Z"/><path class="cls-6" d="M25.43,24.83a.59.59,0,0,1-.63-.48A1.66,1.66,0,0,1,25.43,24.83Z"/><path class="cls-6" d="M24.8,24.35a.67.67,0,0,1-.64-.47A1.67,1.67,0,0,1,24.8,24.35Z"/><path class="cls-6" d="M27.43,26.52c-.26,0-.37-.13-.42-.36Z"/><path class="cls-6" d="M32.09,28.05c0,.26-.18.25-.37.22Z"/><path class="cls-6" d="M27,26.16c-.19,0-.32-.07-.33-.28Z"/><path class="cls-6" d="M31.43,28.45l0,.09-.13,0Z"/><path class="cls-6" d="M31.69,28.3c0,.11,0,.14-.13.07Z"/><path class="cls-6" d="M27.59,26.66c-.13.05-.17,0-.15-.13Z"/><path class="cls-6" d="M31.21,28.6l0,.06-.1,0Z"/><path class="cls-6" d="M24.16,23.89,24,23.81C24.07,23.8,24.14,23.79,24.16,23.89Z"/><path class="cls-6" d="M27.72,26.8c-.09,0-.13,0-.11-.12Z"/><path class="cls-6" d="M67.67,20.3l-.08-.06Z"/><path class="cls-7" d="M67.8,20.5l-.12-.12Z"/><path class="cls-6" d="M74.12,59.7l0-.1Z"/><path class="cls-3" d="M48.77,64.91a9.62,9.62,0,0,1-1.64,3.41,3.61,3.61,0,0,1-6.19-.26,10.17,10.17,0,0,1-1.42-3.46,1.75,1.75,0,0,1-.29-1.08.61.61,0,0,0-.38-.54,4,4,0,0,1-2.27-2.92,3,3,0,0,1-.13-.78l0-.13a3,3,0,0,1,0-.73c0-.5.1-1,.68-1s.7.44.74.92.3,1.06.51,1.56a2.45,2.45,0,0,0,3.34,1.22,2.79,2.79,0,0,0,1.63-1.95c.12-.39.4-.75.31-1.2,0-.06,0-.13-.06-.16h0a.55.55,0,0,0-.18-.06,4.91,4.91,0,0,1-3.44-3c-.63-1.51-.07-2.5,1.56-2.71a16.59,16.59,0,0,1,5.75.24c1.64.36,2.1,1.5,1.3,3a4.85,4.85,0,0,1-3.42,2.42,1.63,1.63,0,0,0,.06,1.21,7.48,7.48,0,0,0,.72,1.61,3,3,0,0,0,3.33.9,2.67,2.67,0,0,0,1.22-1.58,4.13,4.13,0,0,1,.32-.75c0-.15.06-.31.1-.46a.73.73,0,0,1,.54-.65.66.66,0,0,1,.74.33c0,.06,0,.13.06.17a.14.14,0,0,0,0,.06,5.24,5.24,0,0,1-1.43,4.06,3,3,0,0,1-1.12.72.68.68,0,0,0-.51.62A1.38,1.38,0,0,1,48.77,64.91Z"/><path class="cls-6" d="M50.71,59.12a2.82,2.82,0,0,1-2,2.65,3,3,0,0,1-3.28-1.61,4,4,0,0,1-.53-2c0-.17,0-.34.17-.44a2.76,2.76,0,0,0,2.59,2.53A3.38,3.38,0,0,0,50.71,59.12Z"/><path class="cls-6" d="M43.53,57.81c.22.33.08.67,0,1a3,3,0,0,1-4.15,2.47c-1.24-.57-1.49-1.73-1.6-2.94A2.88,2.88,0,0,0,40.49,60a3.27,3.27,0,0,0,3-1.46A1.12,1.12,0,0,0,43.53,57.81Z"/><path class="cls-6" d="M48.77,64.91c.08-.45.17-.9.23-1.35a.23.23,0,0,1,.19-.21c2.25-.81,2.86-2.64,3-4.78a3.46,3.46,0,0,1-.11,1.78,6.4,6.4,0,0,1-2.7,4.35A3.42,3.42,0,0,1,48.77,64.91Z"/><path class="cls-6" d="M36.45,59.28a6,6,0,0,0,1.18,2.6c.22.24.45.56.73.64,1.1.32,1.09,1.21,1.16,2.08a5.54,5.54,0,0,1-2.8-3.73A2.72,2.72,0,0,1,36.45,59.28Z"/><path class="cls-6" d="M36.38,58.42l0,.73A.79.79,0,0,1,36.38,58.42Z"/><path class="cls-6" d="M43.31,57.74l.18.06Z"/><path class="cls-6" d="M52.15,58.51l-.06-.17Z"/><path class="cls-2" d="M68.11,29.66a49.46,49.46,0,0,1-.74,7.27c0,.14,0,.33-.17.37S67,37.14,67,37a38.14,38.14,0,0,0-7.11-7.58c-.91-.73-.9-.74,0-1.69a16,16,0,0,1,3.94-3.26c2.08-1.15,3.64-.4,4.08,1.94A26,26,0,0,1,68.11,29.66Z"/><path class="cls-2" d="M16.46,30.94a7.11,7.11,0,0,1,.64-3.27,2.2,2.2,0,0,1,2.83-.8,14,14,0,0,1,4.18,2.51c.41.32.78.72,1.17,1.08.15.13.15.24,0,.39a39.65,39.65,0,0,0-5.47,6.38c-.52.75-1,1.55-1.45,2.33-.1.15-.17.38-.37.35s-.15-.28-.18-.43A42.82,42.82,0,0,1,16.46,30.94Z"/><path class="cls-4" d="M53.51,37.31a4.35,4.35,0,0,1-3.08-1.25,2.16,2.16,0,0,1,0-3.14,5.69,5.69,0,0,1,6.67-.7c1.75,1.19,1.6,3.18-.33,4.31A6.15,6.15,0,0,1,53.51,37.31Z"/><path class="cls-4" d="M32.82,32.71a4.18,4.18,0,0,1,2.88,1.23,2.14,2.14,0,0,1,0,3.11,5.69,5.69,0,0,1-6.76.72c-1.73-1.25-1.51-3.25.45-4.34A6.5,6.5,0,0,1,32.82,32.71Z"/><path class="cls-3" d="M32.38,42.24c2.79-.08,4.53,2.48,4.79,4.61a.48.48,0,0,1-.23.54c-.24.12-.39,0-.55-.2a11.34,11.34,0,0,0-2.44-2,4.18,4.18,0,0,0-4.88.46c-.16.13-.34.27-.56.11s-.19-.38-.13-.61A4,4,0,0,1,32.38,42.24Z"/><path class="cls-3" d="M55.26,42.09a4.14,4.14,0,0,1,4.16,3c.08.28.23.62-.08.83s-.52-.11-.72-.29a4.37,4.37,0,0,0-5.46-.22c-.6.42-1.15.91-1.73,1.36-.17.13-.33.33-.59.19s-.2-.38-.18-.6A4.92,4.92,0,0,1,55.26,42.09Z"/><path class="cls-2" d="M44.84,62.77l.07-.57.41.35a3.68,3.68,0,0,0,1.94.88c.18,0,.27.1.23.28a6.58,6.58,0,0,1-1.66,3.76,2.21,2.21,0,0,1-3.57-.21,6.75,6.75,0,0,1-1.39-3.78c0-.23.11-.27.28-.29a3.86,3.86,0,0,0,2-.85c.22-.17.19-.06.22.11.16,1.06.34,2.11.5,3.16,0,.18.11.32.28.31a.3.3,0,0,0,.3-.26c.14-1,.26-1.92.39-2.88Z"/><path class="cls-4" d="M44.36,54.11a2.94,2.94,0,0,1-1.77-.52c-.1-.08-.23-.15-.21-.3s.19-.18.3-.19a12.16,12.16,0,0,1,3.13.12c.13,0,.27.07.3.21s-.11.22-.22.29A2.66,2.66,0,0,1,44.36,54.11Z"/></svg>