<svg id="Ebene_1" data-name="Ebene 1" xmlns="http://www.w3.org/2000/svg" viewBox="0 0 604.48 88.8"><defs><style>.cls-1{fill:#fff;}.cls-2{fill:#292b5e;}.cls-3{fill:#ee7baa;}.cls-4{fill:#fbfdfc;}.cls-5{fill:#afafd1;}.cls-6{fill:#ffd852;}</style></defs><path class="cls-1" d="M161.63,50.34a17.69,17.69,0,0,0-9.45-9.46,17.49,17.49,0,0,0-6.92-1.38H133.41a6,6,0,0,1-2.31-.45A5.82,5.82,0,0,1,128,35.89a5.91,5.91,0,0,1-.46-2.33,5.88,5.88,0,0,1,3.59-5.45,6,6,0,0,1,2.31-.45h27.17V15.81H133.41a17.18,17.18,0,0,0-6.89,1.4,18.08,18.08,0,0,0-9.45,9.45,17.61,17.61,0,0,0,0,13.81,18,18,0,0,0,3.82,5.66A18.27,18.27,0,0,0,126.52,50a17.18,17.18,0,0,0,6.89,1.4h11.85a5.84,5.84,0,0,1,4.19,1.71,5.76,5.76,0,0,1,1.26,1.88,6,6,0,0,1,.45,2.31,5.87,5.87,0,0,1-.45,2.31,5.84,5.84,0,0,1-3.14,3.14,5.87,5.87,0,0,1-2.31.45H119V75h26.29a17.33,17.33,0,0,0,6.92-1.4,18.12,18.12,0,0,0,5.65-3.82,17.87,17.87,0,0,0,3.8-5.63,18,18,0,0,0,0-13.81Z"/><path class="cls-1" d="M215.6,30.28A23.72,23.72,0,0,0,203,17.67a23.81,23.81,0,0,0-18.45,0A23.69,23.69,0,0,0,177,22.74,24.17,24.17,0,0,0,172,30.28a23,23,0,0,0-1.86,9.22V75h11.81V63.15h23.69V75h11.85V39.5A23,23,0,0,0,215.6,30.28Zm-10,21.07H181.92V39.5a11.53,11.53,0,0,1,.93-4.6,11.84,11.84,0,0,1,2.53-3.78,12.14,12.14,0,0,1,3.78-2.54,12,12,0,0,1,9.21,0,12,12,0,0,1,3.77,2.54,11.86,11.86,0,0,1,2.54,3.78,11.53,11.53,0,0,1,.93,4.6Z"/><path class="cls-1" d="M263.23,15.81v39l-22.82-39H227.74V75h11.84V36l22.83,39h12.67V15.81Z"/><path class="cls-1" d="M328.56,50.34a17.67,17.67,0,0,0-9.46-9.46,17.44,17.44,0,0,0-6.91-1.38H300.34a6,6,0,0,1-2.31-.45,5.86,5.86,0,0,1-1.88-1.26,5.93,5.93,0,0,1-1.71-4.23,5.87,5.87,0,0,1,.45-2.31,6,6,0,0,1,1.26-1.88A5.86,5.86,0,0,1,298,28.11a6,6,0,0,1,2.31-.45H327.5V15.81H300.34a17.15,17.15,0,0,0-6.89,1.4A18.08,18.08,0,0,0,284,26.66a17.61,17.61,0,0,0,0,13.81A18,18,0,0,0,293.45,50a17.15,17.15,0,0,0,6.89,1.4h11.85a5.84,5.84,0,0,1,4.19,1.71,5.76,5.76,0,0,1,1.26,1.88,6,6,0,0,1,.45,2.31,5.87,5.87,0,0,1-.45,2.31,5.84,5.84,0,0,1-3.14,3.14,5.87,5.87,0,0,1-2.31.45H285.9V75h26.29a17.28,17.28,0,0,0,6.91-1.4,18.05,18.05,0,0,0,5.66-3.82,17.87,17.87,0,0,0,3.8-5.63,18,18,0,0,0,0-13.81Z"/><path class="cls-1" d="M373.2,15.81V39.5H349.55V15.81H337.7V75h11.85V51.35H373.2V75h11.85V15.81Z"/><path class="cls-1" d="M430.87,15.81V51.35a11.4,11.4,0,0,1-.93,4.58,12.17,12.17,0,0,1-2.54,3.76,12,12,0,0,1-3.78,2.54,12,12,0,0,1-9.2,0,11.92,11.92,0,0,1-3.78-2.54,12.17,12.17,0,0,1-2.54-3.76,11.4,11.4,0,0,1-.93-4.58V15.81h-11.8V51.35a23.18,23.18,0,0,0,1.85,9.22,23.58,23.58,0,0,0,12.57,12.57,23.81,23.81,0,0,0,18.45,0,24.17,24.17,0,0,0,7.54-5,23.69,23.69,0,0,0,5.07-7.52,23,23,0,0,0,1.86-9.22V15.81Z"/><path class="cls-1" d="M476.64,15.81V75h11.85V15.81Z"/><path class="cls-1" d="M535,15.81v39l-22.83-39H499.47V75h11.85V36l22.82,39h12.68V15.81Z"/><path class="cls-1" d="M592.63,15.81V51.35a11.56,11.56,0,0,1-.92,4.58,11.88,11.88,0,0,1-6.32,6.3,12,12,0,0,1-9.21,0,11.91,11.91,0,0,1-6.31-6.3,11.4,11.4,0,0,1-.93-4.58V15.81H557.13V51.35A23,23,0,0,0,559,60.57a23.58,23.58,0,0,0,12.57,12.57,23.81,23.81,0,0,0,18.45,0,24.17,24.17,0,0,0,7.54-5,23.69,23.69,0,0,0,5.07-7.52,23,23,0,0,0,1.86-9.22V15.81Z"/><path class="cls-1" d="M88.43,49.26a42.33,42.33,0,0,1-1.85,8.59,46.81,46.81,0,0,1-3.12,7.37A45.25,45.25,0,0,1,73.29,77.91c-.37.32-.66.77-1.19.86-.16-.25,0-.42.14-.6a27.37,27.37,0,0,0,2.49-4.73,20.75,20.75,0,0,0,1.39-5.75,25.2,25.2,0,0,0,.15-2.75,25,25,0,0,0-.93-6.36c-.68-2.47-1.45-4.9-2.33-7.3a47.9,47.9,0,0,0-2.6-6.08,2.06,2.06,0,0,1-.22-1.36c.24-1.51.42-3,.57-4.56.18-1.79.28-3.58.4-5.37s.09-3.68,0-5.51a24,24,0,0,0-.71-5.33,13.61,13.61,0,0,0-.87-2.64.67.67,0,0,1-.11-.49l0,0c.07-.05.06-.13,0-.28a3.77,3.77,0,0,0-2.19-2.06L67,17.44a2.17,2.17,0,0,0-.42-.11,2.14,2.14,0,0,0-.44,0,1.32,1.32,0,0,0-.41.11c-.32.14-.73,0-1.08.15a11.29,11.29,0,0,0-3.69,1.62,25,25,0,0,0-3.22,2.59,41,41,0,0,0-3.48,3.74c-.36.44-.49.5-1,.25a25.47,25.47,0,0,0-3.75-1.54,22.5,22.5,0,0,0-4.8-1,21.83,21.83,0,0,0-6.65.42,22.58,22.58,0,0,0-6.52,2.6c-.23.13-.46.25-.69.39a.62.62,0,0,1-.85-.07c-.32-.3-.65-.58-1-.89a33.37,33.37,0,0,0-5.3-4.25,12.43,12.43,0,0,0-4.33-1.93,5.54,5.54,0,0,0-2.53,0A4.24,4.24,0,0,0,14,22.2a12.12,12.12,0,0,0-.83,3.87c0,.66-.06,1.33-.06,2a43.56,43.56,0,0,0,.36,5.1c.24,2,.58,4,1,6,.44,2.17.9,4.34,1.51,6.48a3,3,0,0,1-.06,1.91A66.63,66.63,0,0,0,13.83,55q-.6,2.79-1.07,5.6a24.56,24.56,0,0,0-.32,5.61A23.1,23.1,0,0,0,15,75.51a27.29,27.29,0,0,0,1.68,2.8c.13.18.29.36.14.6h0a6.29,6.29,0,0,1-1.91-1.48,42.53,42.53,0,0,1-6.78-7.59,44.73,44.73,0,0,1-3.9-6.74,43.93,43.93,0,0,1-2.31-6A43.31,43.31,0,0,1,.34,49.87,44.9,44.9,0,0,1,2.56,29.45a42.82,42.82,0,0,1,4.18-8.58,49.85,49.85,0,0,1,5-6.51,44.59,44.59,0,0,1,7.39-6.47A44.32,44.32,0,0,1,59.88,2.81,44.49,44.49,0,0,1,80.06,18.07a43.46,43.46,0,0,1,5.56,10.08,44.74,44.74,0,0,1,2.81,21.11Z"/><path class="cls-2" d="M76,60.57A71.13,71.13,0,0,0,70.9,45.74,3.12,3.12,0,0,1,70.37,44a79.84,79.84,0,0,0,.94-16.63,18.28,18.28,0,0,0-1.76-7.41l0,0a.67.67,0,0,0,.11.49,13.61,13.61,0,0,1,.87,2.64,24,24,0,0,1,.71,5.33c0,1.83.07,3.67,0,5.51s-.22,3.58-.4,5.37c-.15,1.52-.33,3-.57,4.56a2.06,2.06,0,0,0,.22,1.36A47.9,47.9,0,0,1,73,51.28c.88,2.4,1.65,4.83,2.33,7.3a25,25,0,0,1,.93,6.36,25.2,25.2,0,0,1-.15,2.75,20.75,20.75,0,0,1-1.39,5.75,27.37,27.37,0,0,1-2.49,4.73c-.12.18-.3.35-.14.6-.06-.16.08-.23.15-.33A22.65,22.65,0,0,0,76,60.57ZM45.81,53.22a11.27,11.27,0,0,0-3.12-.12c-.12,0-.29,0-.31.18s.11.23.21.3a2.88,2.88,0,0,0,1.77.53,2.73,2.73,0,0,0,1.53-.39c.11-.07.26-.14.22-.29S45.94,53.24,45.81,53.22Zm1.45,10.21a3.75,3.75,0,0,1-1.94-.88l-.41-.35c0,.19,0,.38-.07.57h0c-.13,1-.25,1.92-.39,2.88a.3.3,0,0,1-.3.27c-.17,0-.25-.13-.27-.31-.17-1-.35-2.11-.51-3.16,0-.18,0-.28-.22-.11a3.91,3.91,0,0,1-2,.85c-.17,0-.3.05-.28.28a6.73,6.73,0,0,0,1.39,3.78,2.2,2.2,0,0,0,3.57.21,6.55,6.55,0,0,0,1.66-3.76C47.53,63.52,47.44,63.46,47.26,63.43Zm0,0a3.75,3.75,0,0,1-1.94-.88l-.41-.35c0,.19,0,.38-.07.57h0c-.13,1-.25,1.92-.39,2.88a.3.3,0,0,1-.3.27c-.17,0-.25-.13-.27-.31-.17-1-.35-2.11-.51-3.16,0-.18,0-.28-.22-.11a3.91,3.91,0,0,1-2,.85c-.17,0-.3.05-.28.28a6.73,6.73,0,0,0,1.39,3.78,2.2,2.2,0,0,0,3.57.21,6.55,6.55,0,0,0,1.66-3.76C47.53,63.52,47.44,63.46,47.26,63.43ZM45.81,53.22a11.27,11.27,0,0,0-3.12-.12c-.12,0-.29,0-.31.18s.11.23.21.3a2.88,2.88,0,0,0,1.77.53,2.73,2.73,0,0,0,1.53-.39c.11-.07.26-.14.22-.29S45.94,53.24,45.81,53.22Zm0,0a11.27,11.27,0,0,0-3.12-.12c-.12,0-.29,0-.31.18s.11.23.21.3a2.88,2.88,0,0,0,1.77.53,2.73,2.73,0,0,0,1.53-.39c.11-.07.26-.14.22-.29S45.94,53.24,45.81,53.22Zm1.45,10.21a3.75,3.75,0,0,1-1.94-.88l-.41-.35c0,.19,0,.38-.07.57h0c-.13,1-.25,1.92-.39,2.88a.3.3,0,0,1-.3.27c-.17,0-.25-.13-.27-.31-.17-1-.35-2.11-.51-3.16,0-.18,0-.28-.22-.11a3.91,3.91,0,0,1-2,.85c-.17,0-.3.05-.28.28a6.73,6.73,0,0,0,1.39,3.78,2.2,2.2,0,0,0,3.57.21,6.55,6.55,0,0,0,1.66-3.76C47.53,63.52,47.44,63.46,47.26,63.43Zm0,0a3.75,3.75,0,0,1-1.94-.88l-.41-.35c0,.19,0,.38-.07.57h0c-.13,1-.25,1.92-.39,2.88a.3.3,0,0,1-.3.27c-.17,0-.25-.13-.27-.31-.17-1-.35-2.11-.51-3.16,0-.18,0-.28-.22-.11a3.91,3.91,0,0,1-2,.85c-.17,0-.3.05-.28.28a6.73,6.73,0,0,0,1.39,3.78,2.2,2.2,0,0,0,3.57.21,6.55,6.55,0,0,0,1.66-3.76C47.53,63.52,47.44,63.46,47.26,63.43ZM45.81,53.22a11.27,11.27,0,0,0-3.12-.12c-.12,0-.29,0-.31.18s.11.23.21.3a2.88,2.88,0,0,0,1.77.53,2.73,2.73,0,0,0,1.53-.39c.11-.07.26-.14.22-.29S45.94,53.24,45.81,53.22Zm0,0a11.27,11.27,0,0,0-3.12-.12c-.12,0-.29,0-.31.18s.11.23.21.3a2.88,2.88,0,0,0,1.77.53,2.73,2.73,0,0,0,1.53-.39c.11-.07.26-.14.22-.29S45.94,53.24,45.81,53.22Zm1.45,10.21a3.75,3.75,0,0,1-1.94-.88l-.41-.35c0,.19,0,.38-.07.57h0c-.13,1-.25,1.92-.39,2.88a.3.3,0,0,1-.3.27c-.17,0-.25-.13-.27-.31-.17-1-.35-2.11-.51-3.16,0-.18,0-.28-.22-.11a3.91,3.91,0,0,1-2,.85c-.17,0-.3.05-.28.28a6.73,6.73,0,0,0,1.39,3.78,2.2,2.2,0,0,0,3.57.21,6.55,6.55,0,0,0,1.66-3.76C47.53,63.52,47.44,63.46,47.26,63.43Zm0,0a3.75,3.75,0,0,1-1.94-.88l-.41-.35c0,.19,0,.38-.07.57h0c-.13,1-.25,1.92-.39,2.88a.3.3,0,0,1-.3.27c-.17,0-.25-.13-.27-.31-.17-1-.35-2.11-.51-3.16,0-.18,0-.28-.22-.11a3.91,3.91,0,0,1-2,.85c-.17,0-.3.05-.28.28a6.73,6.73,0,0,0,1.39,3.78,2.2,2.2,0,0,0,3.57.21,6.55,6.55,0,0,0,1.66-3.76C47.53,63.52,47.44,63.46,47.26,63.43ZM45.81,53.22a11.27,11.27,0,0,0-3.12-.12c-.12,0-.29,0-.31.18s.11.23.21.3a2.88,2.88,0,0,0,1.77.53,2.73,2.73,0,0,0,1.53-.39c.11-.07.26-.14.22-.29S45.94,53.24,45.81,53.22Zm0,0a11.27,11.27,0,0,0-3.12-.12c-.12,0-.29,0-.31.18s.11.23.21.3a2.88,2.88,0,0,0,1.77.53,2.73,2.73,0,0,0,1.53-.39c.11-.07.26-.14.22-.29S45.94,53.24,45.81,53.22Zm1.45,10.21a3.75,3.75,0,0,1-1.94-.88l-.41-.35c0,.19,0,.38-.07.57h0c-.13,1-.25,1.92-.39,2.88a.3.3,0,0,1-.3.27c-.17,0-.25-.13-.27-.31-.17-1-.35-2.11-.51-3.16,0-.18,0-.28-.22-.11a3.91,3.91,0,0,1-2,.85c-.17,0-.3.05-.28.28a6.73,6.73,0,0,0,1.39,3.78,2.2,2.2,0,0,0,3.57.21,6.55,6.55,0,0,0,1.66-3.76C47.53,63.52,47.44,63.46,47.26,63.43Zm0,0a3.75,3.75,0,0,1-1.94-.88l-.41-.35c0,.19,0,.38-.07.57h0c-.13,1-.25,1.92-.39,2.88a.3.3,0,0,1-.3.27c-.17,0-.25-.13-.27-.31-.17-1-.35-2.11-.51-3.16,0-.18,0-.28-.22-.11a3.91,3.91,0,0,1-2,.85c-.17,0-.3.05-.28.28a6.73,6.73,0,0,0,1.39,3.78,2.2,2.2,0,0,0,3.57.21,6.55,6.55,0,0,0,1.66-3.76C47.53,63.52,47.44,63.46,47.26,63.43Zm-4.67-9.85a2.88,2.88,0,0,0,1.77.53,2.73,2.73,0,0,0,1.53-.39c.11-.07.26-.14.22-.29s-.17-.19-.3-.21a11.27,11.27,0,0,0-3.12-.12c-.12,0-.29,0-.31.18S42.49,53.51,42.59,53.58Zm31.7,6.83-.06-.2c0-.17-.07-.34-.11-.51s0-.07,0-.11c-.31-1.08-.59-2.17-.93-3.25a40.16,40.16,0,0,0-1.58-4.51A52.88,52.88,0,0,0,69,45.7a2.16,2.16,0,0,1-.36-1.26,95,95,0,0,0,1-9.82A42.4,42.4,0,0,0,69.25,24,6.89,6.89,0,0,0,67.8,20.5l-.12-.12a.22.22,0,0,0,0-.08s-.06,0-.08-.06a4.85,4.85,0,0,0-.59-.45c-1.72-.83-3.21-.16-4.68.7h0a6.92,6.92,0,0,0-1.68,1.14h0a23.88,23.88,0,0,0-4.91,4.77h0c-.36.43-.71.83-1,1.27a.78.78,0,0,1-1.12.25c-.6-.32-1.21-.63-1.83-.9a10.8,10.8,0,0,0-2.64-.94L48.62,26c0-.18-.23-.16-.35-.19a20.08,20.08,0,0,0-6.81-.72,20.57,20.57,0,0,0-9.36,3h0l-.37.23,0,0-.13.08-.12.07-.11.07-.12.09-.08,0c-.39.28-.78.59-1.29.25a16.74,16.74,0,0,0-2.12-2.09h0l-.09-.1,0,0-.15-.13h0L27,26.16h0l-.31-.26h0a6,6,0,0,0-1.26-1.05,1.53,1.53,0,0,0-.62-.48h0a1.8,1.8,0,0,0-.63-.46c0-.1-.1-.09-.17-.07l-.36-.24A1.63,1.63,0,0,0,22.9,23h0a6.78,6.78,0,0,0-2.51-1.27h0a3.52,3.52,0,0,0-1.33-.43,3.06,3.06,0,0,0-3.22,1v0a3.19,3.19,0,0,0-.32.43,9,9,0,0,0-.88,4c0,.13,0,.26,0,.39a59.47,59.47,0,0,0,2.34,16,10.09,10.09,0,0,1-.25,7,16.21,16.21,0,0,0-1,3.79c-.05.06-.13.11-.14.18-.34,1.55-.63,3.12-1,4.67A19.54,19.54,0,0,0,14,62.21a21.41,21.41,0,0,0-.1,3.92c.05.64.07,1.29.17,1.92a22.56,22.56,0,0,0,8.45,14.28c4.88,4,10.66,5.76,16.85,6.28a49.06,49.06,0,0,0,15-1,27.3,27.3,0,0,0,14.15-7.55A15.92,15.92,0,0,0,72,75.23c.38,0,.38-.4.5-.62A20.35,20.35,0,0,0,74.29,60.41ZM57.15,32.22c1.75,1.19,1.6,3.17-.33,4.31a6.06,6.06,0,0,1-3.31.77,4.34,4.34,0,0,1-3.07-1.24,2.17,2.17,0,0,1,0-3.15A5.7,5.7,0,0,1,57.15,32.22Zm-28.77,13a4,4,0,0,1,4-2.94c2.8-.09,4.53,2.47,4.79,4.61a.48.48,0,0,1-.23.54c-.24.11-.39,0-.55-.2a10.82,10.82,0,0,0-2.44-2,4.16,4.16,0,0,0-4.87.46c-.17.13-.35.26-.57.11S28.32,45.4,28.38,45.18Zm4.44-12.47a4.12,4.12,0,0,1,2.88,1.22,2.14,2.14,0,0,1,0,3.11,5.67,5.67,0,0,1-6.76.73c-1.73-1.25-1.51-3.26.45-4.34A6.5,6.5,0,0,1,32.82,32.71Zm5.54,29.81c-.28-.08-.51-.4-.73-.64a6.28,6.28,0,0,1-1.18-2.6s0-.09,0-.13c0-.25,0-.49,0-.73,0-.51.1-1,.68-1s.7.45.74.92c.11,1.22.36,2.38,1.61,3a3,3,0,0,0,4.14-2.47A1.5,1.5,0,0,0,43.6,58a.09.09,0,0,0,0,0s0,0,0,0l0-.08h0l-.18,0a5,5,0,0,1-3.44-3c-.63-1.52-.07-2.51,1.56-2.72a16.66,16.66,0,0,1,5.76.25c1.64.36,2.09,1.5,1.29,3a4.82,4.82,0,0,1-3.41,2.43c-.18.1-.17.27-.18.43a4,4,0,0,0,.53,2,3,3,0,0,0,3.28,1.61,2.82,2.82,0,0,0,2-2.65c0-.16.06-.31.1-.46a.75.75,0,0,1,.54-.66.66.66,0,0,1,.74.34s0,0,0,0a.24.24,0,0,0,0,.13.14.14,0,0,0,0,.06c-.12,2.13-.73,4-3,4.77a.25.25,0,0,0-.19.22c-.06.45-.15.9-.23,1.35a9.66,9.66,0,0,1-1.64,3.4,3.61,3.61,0,0,1-6.19-.25,10.22,10.22,0,0,1-1.42-3.47C39.45,63.72,39.46,62.84,38.36,62.52Zm21-16.62c-.33.23-.53-.11-.73-.29a4.35,4.35,0,0,0-5.46-.22c-.6.41-1.15.9-1.73,1.35-.17.14-.33.33-.59.19s-.2-.37-.18-.59a4.92,4.92,0,0,1,4.6-4.25,4.14,4.14,0,0,1,4.16,3C59.5,45.34,59.65,45.69,59.35,45.9Zm8.48-19.45a26,26,0,0,1,.28,3.2,49.6,49.6,0,0,1-.74,7.28c0,.14,0,.33-.17.37S67,37.14,67,37a38.21,38.21,0,0,0-7.12-7.58c-.9-.73-.9-.75,0-1.7a15.79,15.79,0,0,1,3.94-3.25C65.83,23.35,67.39,24.1,67.83,26.45ZM16.46,30.94a7.09,7.09,0,0,1,.65-3.27,2.19,2.19,0,0,1,2.82-.8,14,14,0,0,1,4.18,2.5c.41.33.78.72,1.17,1.08.15.14.15.25,0,.39a39.28,39.28,0,0,0-5.48,6.39c-.52.75-1,1.55-1.45,2.32-.1.16-.17.39-.37.36s-.15-.28-.18-.44A43.33,43.33,0,0,1,16.46,30.94ZM45.83,67.46a6.55,6.55,0,0,0,1.66-3.76c0-.18-.05-.24-.23-.27a3.75,3.75,0,0,1-1.94-.88l-.41-.35c0,.19,0,.38-.07.57h0c-.13,1-.25,1.92-.39,2.88a.3.3,0,0,1-.3.27c-.17,0-.25-.13-.27-.31-.17-1-.35-2.11-.51-3.16,0-.18,0-.28-.22-.11a3.91,3.91,0,0,1-2,.85c-.17,0-.3.05-.28.28a6.73,6.73,0,0,0,1.39,3.78A2.2,2.2,0,0,0,45.83,67.46Zm.06-13.74c.11-.07.26-.14.22-.29s-.17-.19-.3-.21a11.27,11.27,0,0,0-3.12-.12c-.12,0-.29,0-.31.18s.11.23.21.3a2.88,2.88,0,0,0,1.77.53A2.73,2.73,0,0,0,45.89,53.72Zm-.08-.5a11.27,11.27,0,0,0-3.12-.12c-.12,0-.29,0-.31.18s.11.23.21.3a2.88,2.88,0,0,0,1.77.53,2.73,2.73,0,0,0,1.53-.39c.11-.07.26-.14.22-.29S45.94,53.24,45.81,53.22Zm1.45,10.21a3.75,3.75,0,0,1-1.94-.88l-.41-.35c0,.19,0,.38-.07.57h0c-.13,1-.25,1.92-.39,2.88a.3.3,0,0,1-.3.27c-.17,0-.25-.13-.27-.31-.17-1-.35-2.11-.51-3.16,0-.18,0-.28-.22-.11a3.91,3.91,0,0,1-2,.85c-.17,0-.3.05-.28.28a6.73,6.73,0,0,0,1.39,3.78,2.2,2.2,0,0,0,3.57.21,6.55,6.55,0,0,0,1.66-3.76C47.53,63.52,47.44,63.46,47.26,63.43Zm0,0a3.75,3.75,0,0,1-1.94-.88l-.41-.35c0,.19,0,.38-.07.57h0c-.13,1-.25,1.92-.39,2.88a.3.3,0,0,1-.3.27c-.17,0-.25-.13-.27-.31-.17-1-.35-2.11-.51-3.16,0-.18,0-.28-.22-.11a3.91,3.91,0,0,1-2,.85c-.17,0-.3.05-.28.28a6.73,6.73,0,0,0,1.39,3.78,2.2,2.2,0,0,0,3.57.21,6.55,6.55,0,0,0,1.66-3.76C47.53,63.52,47.44,63.46,47.26,63.43ZM45.81,53.22a11.27,11.27,0,0,0-3.12-.12c-.12,0-.29,0-.31.18s.11.23.21.3a2.88,2.88,0,0,0,1.77.53,2.73,2.73,0,0,0,1.53-.39c.11-.07.26-.14.22-.29S45.94,53.24,45.81,53.22Zm0,0a11.27,11.27,0,0,0-3.12-.12c-.12,0-.29,0-.31.18s.11.23.21.3a2.88,2.88,0,0,0,1.77.53,2.73,2.73,0,0,0,1.53-.39c.11-.07.26-.14.22-.29S45.94,53.24,45.81,53.22Zm1.45,10.21a3.75,3.75,0,0,1-1.94-.88l-.41-.35c0,.19,0,.38-.07.57h0c-.13,1-.25,1.92-.39,2.88a.3.3,0,0,1-.3.27c-.17,0-.25-.13-.27-.31-.17-1-.35-2.11-.51-3.16,0-.18,0-.28-.22-.11a3.91,3.91,0,0,1-2,.85c-.17,0-.3.05-.28.28a6.73,6.73,0,0,0,1.39,3.78,2.2,2.2,0,0,0,3.57.21,6.55,6.55,0,0,0,1.66-3.76C47.53,63.52,47.44,63.46,47.26,63.43Zm0,0a3.75,3.75,0,0,1-1.94-.88l-.41-.35c0,.19,0,.38-.07.57h0c-.13,1-.25,1.92-.39,2.88a.3.3,0,0,1-.3.27c-.17,0-.25-.13-.27-.31-.17-1-.35-2.11-.51-3.16,0-.18,0-.28-.22-.11a3.91,3.91,0,0,1-2,.85c-.17,0-.3.05-.28.28a6.73,6.73,0,0,0,1.39,3.78,2.2,2.2,0,0,0,3.57.21,6.55,6.55,0,0,0,1.66-3.76C47.53,63.52,47.44,63.46,47.26,63.43ZM45.81,53.22a11.27,11.27,0,0,0-3.12-.12c-.12,0-.29,0-.31.18s.11.23.21.3a2.88,2.88,0,0,0,1.77.53,2.73,2.73,0,0,0,1.53-.39c.11-.07.26-.14.22-.29S45.94,53.24,45.81,53.22Zm0,0a11.27,11.27,0,0,0-3.12-.12c-.12,0-.29,0-.31.18s.11.23.21.3a2.88,2.88,0,0,0,1.77.53,2.73,2.73,0,0,0,1.53-.39c.11-.07.26-.14.22-.29S45.94,53.24,45.81,53.22Zm1.45,10.21a3.75,3.75,0,0,1-1.94-.88l-.41-.35c0,.19,0,.38-.07.57h0c-.13,1-.25,1.92-.39,2.88a.3.3,0,0,1-.3.27c-.17,0-.25-.13-.27-.31-.17-1-.35-2.11-.51-3.16,0-.18,0-.28-.22-.11a3.91,3.91,0,0,1-2,.85c-.17,0-.3.05-.28.28a6.73,6.73,0,0,0,1.39,3.78,2.2,2.2,0,0,0,3.57.21,6.55,6.55,0,0,0,1.66-3.76C47.53,63.52,47.44,63.46,47.26,63.43Zm0,0a3.75,3.75,0,0,1-1.94-.88l-.41-.35c0,.19,0,.38-.07.57h0c-.13,1-.25,1.92-.39,2.88a.3.3,0,0,1-.3.27c-.17,0-.25-.13-.27-.31-.17-1-.35-2.11-.51-3.16,0-.18,0-.28-.22-.11a3.91,3.91,0,0,1-2,.85c-.17,0-.3.05-.28.28a6.73,6.73,0,0,0,1.39,3.78,2.2,2.2,0,0,0,3.57.21,6.55,6.55,0,0,0,1.66-3.76C47.53,63.52,47.44,63.46,47.26,63.43ZM45.81,53.22a11.27,11.27,0,0,0-3.12-.12c-.12,0-.29,0-.31.18s.11.23.21.3a2.88,2.88,0,0,0,1.77.53,2.73,2.73,0,0,0,1.53-.39c.11-.07.26-.14.22-.29S45.94,53.24,45.81,53.22ZM72,78.92h0s0-.11.08-.15C72,78.78,71.94,78.81,72,78.92Zm-6-61.6a7.48,7.48,0,0,1-1.05.06,9.17,9.17,0,0,0-2.51.79c-3.23,1.61-5.67,4.15-8,6.83-.74.86-.71.86-1.72.38a22.73,22.73,0,0,0-12.62-2.23,23,23,0,0,0-9.47,3.43.4.4,0,0,1-.59-.07c-.7-.69-1.41-1.38-2.15-2a23.36,23.36,0,0,0-7.46-4.81c-3.58-1.26-6.14.15-7,3.84a22.33,22.33,0,0,0-.35,6.87,85.3,85.3,0,0,0,2.78,15.45,1.54,1.54,0,0,1,.13,1,82.92,82.92,0,0,0-3.3,13.35,23.76,23.76,0,0,0,3.74,18.09c.14.2.36.36.35.64h0s.12,0,.15.09,0-.15-.12-.1c.15-.24,0-.42-.14-.6A27.29,27.29,0,0,1,15,75.51a23.1,23.1,0,0,1-2.52-9.27,24.56,24.56,0,0,1,.32-5.61q.47-2.81,1.07-5.6a66.63,66.63,0,0,1,2.09-7.5A3,3,0,0,0,16,45.62c-.61-2.14-1.07-4.31-1.51-6.48-.4-2-.74-4-1-6a43.56,43.56,0,0,1-.36-5.1c0-.67,0-1.34.06-2A12.12,12.12,0,0,1,14,22.2a4.24,4.24,0,0,1,2.82-2.66,5.54,5.54,0,0,1,2.53,0,12.43,12.43,0,0,1,4.33,1.93A33.37,33.37,0,0,1,29,25.7c.31.31.64.59,1,.89a.62.62,0,0,0,.85.07c.23-.14.46-.26.69-.39A22.58,22.58,0,0,1,38,23.67a21.83,21.83,0,0,1,6.65-.42,22.5,22.5,0,0,1,4.8,1,25.47,25.47,0,0,1,3.75,1.54c.52.25.65.19,1-.25a41,41,0,0,1,3.48-3.74,25,25,0,0,1,3.22-2.59,11.29,11.29,0,0,1,3.69-1.62c.35-.18.76,0,1.08-.15a1.32,1.32,0,0,1,.41-.11Z"/><path class="cls-3" d="M72,78.92h0c-.07-.11,0-.14.09-.15S72.12,78.91,72,78.92Z"/><path class="cls-3" d="M16.9,79c-.12.08-.16,0-.15-.09h0C16.87,78.86,16.88,79,16.9,79Z"/><path class="cls-3" d="M17,79.18c-.13,0-.21,0-.12-.17Z"/><path class="cls-3" d="M72,78.92c0,.11,0,.14-.12.06l.11-.06Z"/><path class="cls-4" d="M46.11,53.43c0,.15-.11.22-.22.29a2.73,2.73,0,0,1-1.53.39,2.88,2.88,0,0,1-1.77-.53c-.1-.07-.23-.15-.21-.3s.19-.17.31-.18a11.27,11.27,0,0,1,3.12.12C45.94,53.24,46.08,53.28,46.11,53.43Z"/><path class="cls-4" d="M47.49,63.7a6.55,6.55,0,0,1-1.66,3.76,2.2,2.2,0,0,1-3.57-.21,6.73,6.73,0,0,1-1.39-3.78c0-.23.11-.26.28-.28a3.91,3.91,0,0,0,2-.85c.22-.17.19-.07.22.11.16,1,.34,2.11.51,3.16,0,.18.1.31.27.31a.3.3,0,0,0,.3-.27c.14-1,.26-1.92.39-2.88h0c0-.19,0-.38.07-.57l.41.35a3.75,3.75,0,0,0,1.94.88C47.44,63.46,47.53,63.52,47.49,63.7Z"/><path class="cls-4" d="M74.23,60.21c0-.17-.07-.34-.11-.51s0-.07,0-.11c-.31-1.08-.59-2.17-.93-3.25a40.16,40.16,0,0,0-1.58-4.51,1,1,0,0,0-.61-.1,8.86,8.86,0,0,0-4.36,1.68A23.06,23.06,0,0,0,63,56.62c-.53.57-1.07,1.12-1.64,1.65a1.83,1.83,0,0,1-2.41.22,8.16,8.16,0,0,1-1.23-1c-1.08-1.15-2-2.42-3.08-3.59a16.84,16.84,0,0,0-5.85-4.38,13.67,13.67,0,0,0-5-1.15,12.3,12.3,0,0,0-5.5,1.18,13.82,13.82,0,0,0-4,2.73A28,28,0,0,0,30.61,57a14.88,14.88,0,0,1-1.95,2.52,2.27,2.27,0,0,1-1.13.68,2,2,0,0,1-1.75-.54c-.7-.55-1.36-1.15-2-1.72a20.43,20.43,0,0,0-4.33-3A7.28,7.28,0,0,0,15.66,54c-.05.06-.13.11-.14.18-.34,1.55-.63,3.12-1,4.67A19.54,19.54,0,0,0,14,62.21a21.41,21.41,0,0,0-.1,3.92,10.42,10.42,0,0,0,1.34,3.05,25.2,25.2,0,0,0,5.55,6.7A25.82,25.82,0,0,0,28,80.17a31.68,31.68,0,0,0,6.13,1.71,37.81,37.81,0,0,0,6.18.59c1.26,0,2.52,0,3.78,0,.89-.07,1.78-.11,2.67-.2a47.4,47.4,0,0,0,6.58-1.14,31.57,31.57,0,0,0,9.25-3.89,25.49,25.49,0,0,0,5.62-4.79,24.75,24.75,0,0,0,5.66-10.76A2.85,2.85,0,0,0,74,60.48C74,60.31,74.13,60.28,74.23,60.21ZM40.94,68.06a10.22,10.22,0,0,1-1.42-3.47c-.07-.87-.06-1.75-1.16-2.07-.28-.08-.51-.4-.73-.64a6.28,6.28,0,0,1-1.18-2.6s0-.09,0-.13c0-.25,0-.49,0-.73,0-.51.1-1,.68-1s.7.45.74.92c.11,1.22.36,2.38,1.61,3a3,3,0,0,0,4.14-2.47A1.5,1.5,0,0,0,43.6,58a.09.09,0,0,0,0,0s0,0,0,0l0-.08h0l-.18,0a5,5,0,0,1-3.44-3c-.63-1.52-.07-2.51,1.56-2.72a16.66,16.66,0,0,1,5.76.25c1.64.36,2.09,1.5,1.29,3a4.82,4.82,0,0,1-3.41,2.43c-.18.1-.17.27-.18.43a4,4,0,0,0,.53,2,3,3,0,0,0,3.28,1.61,2.82,2.82,0,0,0,2-2.65c0-.16.06-.31.1-.46a.75.75,0,0,1,.54-.66.66.66,0,0,1,.74.34s0,0,0,0a.24.24,0,0,0,0,.13.14.14,0,0,0,0,.06c-.12,2.13-.73,4-3,4.77a.25.25,0,0,0-.19.22c-.06.45-.15.9-.23,1.35a9.66,9.66,0,0,1-1.64,3.4A3.61,3.61,0,0,1,40.94,68.06Z"/><path class="cls-5" d="M69,45.7a2.16,2.16,0,0,1-.36-1.26,95,95,0,0,0,1-9.82A42.4,42.4,0,0,0,69.25,24,6.89,6.89,0,0,0,67.8,20.5a.16.16,0,0,1-.12-.12.22.22,0,0,0,0-.08s-.06,0-.08-.06-.15-.07-.23-.08h0l-.11,0a4.61,4.61,0,0,0-2.81.4,15.54,15.54,0,0,0-4.63,3.28A42.44,42.44,0,0,0,55,29.36a.43.43,0,0,1-.68.15A20.35,20.35,0,0,0,51.19,28a9.32,9.32,0,0,0-1.72-.55c-.4-.06-.52,0-.64.39a2.5,2.5,0,0,1-.63,1,4.73,4.73,0,0,1-2,1.12A7.06,7.06,0,0,1,41.68,30a2.38,2.38,0,0,1-1.82-2.44c0-.33-.16-.44-.52-.39a12.8,12.8,0,0,0-2.2.61,24.85,24.85,0,0,0-5.91,3.09c-.37.26-.42.27-.71-.08-.44-.51-.9-1-1.37-1.47a41.13,41.13,0,0,0-3.88-3.46,15.51,15.51,0,0,0-4.76-2.7,4.48,4.48,0,0,0-3.28,0,4.33,4.33,0,0,0-2.48,3.26s0,0,0,0a2,2,0,0,0-.05.24.07.07,0,0,1,0,.06s0,.06-.05.08,0,.26,0,.39a59.47,59.47,0,0,0,2.34,16,10.09,10.09,0,0,1-.25,7,16.21,16.21,0,0,0-1,3.79,1.59,1.59,0,0,0,.32.12,8.8,8.8,0,0,1,4.17,1.3,35.78,35.78,0,0,1,5.22,4c1.39,1.19,2.4,1.18,3.64-.16a16,16,0,0,0,1.46-1.9,24.62,24.62,0,0,1,5-6,12.67,12.67,0,0,1,9-2.84A15,15,0,0,1,54.61,54a52.25,52.25,0,0,0,3.62,4.1c1.32,1.2,2.34,1.19,3.62-.06l.8-.81a28.12,28.12,0,0,1,4.15-3.79,9,9,0,0,1,4.77-1.63A52.88,52.88,0,0,0,69,45.7ZM67.83,26.45a26,26,0,0,1,.28,3.2,49.6,49.6,0,0,1-.74,7.28c0,.14,0,.33-.17.37S67,37.14,67,37a38.21,38.21,0,0,0-7.12-7.58c-.9-.73-.9-.75,0-1.7a15.79,15.79,0,0,1,3.94-3.25C65.83,23.35,67.39,24.1,67.83,26.45ZM58.62,45.61a4.35,4.35,0,0,0-5.46-.22c-.6.41-1.15.9-1.73,1.35-.17.14-.33.33-.59.19s-.2-.37-.18-.59a4.92,4.92,0,0,1,4.6-4.25,4.14,4.14,0,0,1,4.16,3c.08.27.23.62-.07.83S58.82,45.79,58.62,45.61Zm-8.14-12.7a5.7,5.7,0,0,1,6.67-.69c1.75,1.19,1.6,3.17-.33,4.31a6.06,6.06,0,0,1-3.31.77,4.34,4.34,0,0,1-3.07-1.24A2.17,2.17,0,0,1,50.48,32.91ZM36.94,47.39c-.24.11-.39,0-.55-.2a10.82,10.82,0,0,0-2.44-2,4.16,4.16,0,0,0-4.87.46c-.17.13-.35.26-.57.11s-.19-.39-.13-.61a4,4,0,0,1,4-2.94c2.8-.09,4.53,2.47,4.79,4.61A.48.48,0,0,1,36.94,47.39Zm-7.53-14a6.5,6.5,0,0,1,3.41-.72,4.12,4.12,0,0,1,2.88,1.22,2.14,2.14,0,0,1,0,3.11,5.67,5.67,0,0,1-6.76.73C27.23,36.52,27.45,34.51,29.41,33.43ZM16.46,30.94a7.09,7.09,0,0,1,.65-3.27,2.19,2.19,0,0,1,2.82-.8,14,14,0,0,1,4.18,2.5c.41.33.78.72,1.17,1.08.15.14.15.25,0,.39a39.28,39.28,0,0,0-5.48,6.39c-.52.75-1,1.55-1.45,2.32-.1.16-.17.39-.37.36s-.15-.28-.18-.44A43.33,43.33,0,0,1,16.46,30.94Z"/><path class="cls-1" d="M35.72,37a5.67,5.67,0,0,1-6.76.73c-1.73-1.25-1.51-3.26.45-4.34a6.5,6.5,0,0,1,3.41-.72,4.12,4.12,0,0,1,2.88,1.22A2.14,2.14,0,0,1,35.72,37Z"/><path class="cls-1" d="M56.82,36.53a6.06,6.06,0,0,1-3.31.77,4.34,4.34,0,0,1-3.07-1.24,2.17,2.17,0,0,1,0-3.15,5.7,5.7,0,0,1,6.67-.69C58.9,33.41,58.75,35.39,56.82,36.53Z"/><path class="cls-5" d="M73.93,70.6a18.81,18.81,0,0,1-1.25,3.3A7.77,7.77,0,0,1,72,75.23a15.92,15.92,0,0,1-3.41,4.88,27.3,27.3,0,0,1-14.15,7.55,49.06,49.06,0,0,1-15,1c-6.19-.52-12-2.26-16.85-6.28A22.56,22.56,0,0,1,14.1,68.05c-.1-.63-.12-1.28-.17-1.92.45.9.87,1.81,1.35,2.7A24.4,24.4,0,0,0,20.06,75a25.58,25.58,0,0,0,9.12,5.46,33.21,33.21,0,0,0,9,1.78,49.58,49.58,0,0,0,14.62-1.17A28.8,28.8,0,0,0,67.7,72.7a24.42,24.42,0,0,0,6.17-11.86c0-.18,0-.37.07-.55A2.29,2.29,0,0,1,74,60l.2.2.06.2A7.91,7.91,0,0,0,74.48,62a14.22,14.22,0,0,1,.17,1.6A22.08,22.08,0,0,1,73.93,70.6Z"/><path class="cls-1" d="M67.34,20.23C64.83,20,63,21.34,61.18,22.8A37.15,37.15,0,0,0,55,29.62c-.19.25-.33.29-.61.13a20.55,20.55,0,0,0-4.94-2.11c-.3-.08-.38,0-.47.3a3.15,3.15,0,0,1-2.13,2,7.21,7.21,0,0,1-5.23.12c-1-.38-2.2-1.21-1.89-2.65,0-.18,0-.25-.2-.21a19.54,19.54,0,0,0-5.26,1.93,19.55,19.55,0,0,0-3.22,2c-.24.19-.36,0-.49-.16a41,41,0,0,0-3.67-3.67,19.25,19.25,0,0,0-6.18-4c-2.9-1-5.12.17-5.89,3.15,0,.1-.06.19-.09.29a.18.18,0,0,1-.05-.07.48.48,0,0,1,0-.29c.14-.84.22-1.68.43-2.5a7.15,7.15,0,0,1,.73-1.59v0a4.15,4.15,0,0,1,1.19-.8,4.28,4.28,0,0,1,2.76.06l.6.17h0c.84.42,1.71.77,2.51,1.27h0a4,4,0,0,0,.74.55l.36.24a.12.12,0,0,0,.08,0l.08,0a1.46,1.46,0,0,0,.64.46h0a1.24,1.24,0,0,0,.62.48,6.07,6.07,0,0,0,1.26,1.05h0c.05.16.2.19.31.26h0c.11.15.2.32.41.36h0v0a.19.19,0,0,0,0,.08s0,0,.07,0h.06l0,0s0,0,0,0,0,0,0,0,.09,0,.11,0c.69.72,1.36,1.43,2.12,2.08.51.34.9,0,1.29-.25l.06,0h0s0,0,0,0l.12-.09h0c.05,0,.07,0,.08-.07l.12-.07a.1.1,0,0,0,.13-.08l0,0a.34.34,0,0,0,.37-.23h0a19.78,19.78,0,0,0,1.79-.88,20.15,20.15,0,0,1,3.56-1.34,19.94,19.94,0,0,1,5-.68,22.1,22.1,0,0,1,5.62.66,5.27,5.27,0,0,1,.56.19l.45.11c1.11.41,2.23.8,3.3,1.32.35.18.7.35,1,.54a1,1,0,0,0,.77.14.82.82,0,0,0,.24-.1,1.19,1.19,0,0,0,.35-.33c.32-.41.63-.82.93-1.25A16.74,16.74,0,0,0,57,25,22,22,0,0,1,59,23c.48-.43,1-.83,1.48-1.21l.12-.1v0l0,0h0c.59-.34,1.11-.76,1.68-1.14h0a17.16,17.16,0,0,1,2-.84,3.42,3.42,0,0,1,2.76.27c.09,0,.21.1.23.23A.11.11,0,0,1,67.34,20.23Z"/><path class="cls-4" d="M72.45,74.61c-.12.22-.12.59-.5.62a27.86,27.86,0,0,0,1.74-4.32A23.3,23.3,0,0,0,74.45,62a5.26,5.26,0,0,1-.16-1.63A20.35,20.35,0,0,1,72.45,74.61Z"/><path class="cls-5" d="M48.62,26a30.25,30.25,0,0,0-3.89-.72,21.72,21.72,0,0,0-6.53.45,26.14,26.14,0,0,0-5.29,2c-.26.12-.46.4-.81.33a20.57,20.57,0,0,1,9.36-3,20.08,20.08,0,0,1,6.81.72C48.39,25.83,48.57,25.81,48.62,26Z"/><path class="cls-5" d="M60.61,21.64l-.09.15a7.37,7.37,0,0,1-1.42,1.26,32.51,32.51,0,0,0-3,3.1c-.11.13-.2.29-.4.27h0A23.88,23.88,0,0,1,60.61,21.64Z"/><path class="cls-5" d="M55.7,26.42A2.8,2.8,0,0,1,54.42,28a.82.82,0,0,1-.24.1.88.88,0,0,1-.53,0c-.55-.19-1-.53-1.59-.77-1-.43-2-.83-3-1.25a10.8,10.8,0,0,1,2.64.94c.62.27,1.23.58,1.83.9a.78.78,0,0,0,1.12-.25C55,27.25,55.34,26.85,55.7,26.42Z"/><path class="cls-5" d="M67.59,20.24h-.25l-.12-.1a2.89,2.89,0,0,0-2.75-.43c-.74.21-1.43.52-2.15.79,1.47-.86,3-1.53,4.68-.7A4.85,4.85,0,0,1,67.59,20.24Z"/><path class="cls-5" d="M20.38,21.76c-.68,0-1.3-.34-2-.35a3.14,3.14,0,0,0-2.33.81.61.61,0,0,1-.23.11,3.06,3.06,0,0,1,3.22-1A3.52,3.52,0,0,1,20.38,21.76Z"/><path class="cls-5" d="M15.82,22.35a12.89,12.89,0,0,0-.74,1.9c-.11.71-.28,1.42-.33,2.14,0,0,0,0,0,0s0,.25,0,.37h-.1a9,9,0,0,1,.88-4A3.19,3.19,0,0,1,15.82,22.35Z"/><path class="cls-5" d="M22.89,23c-.67-.09-1.15-.6-1.76-.84-.26-.1-.59-.12-.75-.42h0A6.78,6.78,0,0,1,22.89,23Z"/><path class="cls-5" d="M29.84,28.88c-.39-.05-.56-.39-.78-.63-.44-.5-1-.84-1.34-1.45h0A16.74,16.74,0,0,1,29.84,28.88Z"/><path class="cls-5" d="M62.31,20.49a5,5,0,0,1-1.68,1.14A6.92,6.92,0,0,1,62.31,20.49Z"/><path class="cls-5" d="M25.43,24.83a6,6,0,0,1,1.26,1.05A2.59,2.59,0,0,1,25.43,24.83Z"/><polygon class="cls-5" points="26.69 25.89 26.69 25.88 26.7 25.89 26.69 25.89"/><path class="cls-5" d="M23.64,23.57c-.29-.13-.63-.19-.75-.55h0A1.63,1.63,0,0,1,23.64,23.57Z"/><path class="cls-5" d="M24.8,24.34a0,0,0,0,1,0,0h0Z"/><path class="cls-5" d="M25.43,24.83a.58.58,0,0,1-.62-.48A1.53,1.53,0,0,1,25.43,24.83Z"/><path class="cls-5" d="M24.8,24.34h0a.68.68,0,0,1-.64-.47h0A1.8,1.8,0,0,1,24.8,24.34Z"/><path class="cls-5" d="M27.43,26.52c-.26,0-.37-.14-.42-.36h0Z"/><path class="cls-5" d="M32.09,28c0,.26-.18.25-.37.23Z"/><path class="cls-5" d="M27,26.15h0a.28.28,0,0,1-.32-.27h0Z"/><path class="cls-5" d="M31.46,28.53l-.1,0h0l.11-.07A.29.29,0,0,0,31.46,28.53Z"/><path class="cls-5" d="M31.69,28.29c0,.11,0,.15-.13.08Z"/><path class="cls-5" d="M27.59,26.66h-.06c-.05,0-.07,0-.07,0a.19.19,0,0,1,0-.08v0Z"/><path class="cls-5" d="M31.23,28.66h0l-.06,0,.08,0a.06.06,0,0,1,0,0S31.23,28.65,31.23,28.66Z"/><path class="cls-5" d="M24.17,23.88h0l-.08,0-.08,0C24.07,23.79,24.14,23.78,24.17,23.88Z"/><path class="cls-5" d="M27.72,26.79h0c-.06,0-.1,0-.11,0s0,0,0,0,0,0,0,0Z"/><path class="cls-5" d="M67.67,20.3l-.08-.06Z"/><path class="cls-6" d="M67.8,20.5l-.12-.12Z"/><path class="cls-5" d="M74.12,59.7l0-.11Z"/><path class="cls-2" d="M36.43,59.15a3,3,0,0,1,0-.73C36.4,58.66,36.41,58.9,36.43,59.15Z"/><path class="cls-2" d="M39.52,64.59c-.29-.3-.24-.71-.29-1.08a.61.61,0,0,0-.38-.53,4.07,4.07,0,0,1-2.27-2.93,2.82,2.82,0,0,1-.13-.77,6.28,6.28,0,0,0,1.18,2.6c.22.24.45.56.73.64C39.46,62.84,39.45,63.72,39.52,64.59Z"/><path class="cls-2" d="M43.55,58.81a3,3,0,0,1-4.14,2.47c-1.25-.57-1.5-1.73-1.61-3,.18.52.3,1.06.51,1.57a2.45,2.45,0,0,0,3.34,1.22,2.83,2.83,0,0,0,1.63-1.95c.13-.39.4-.75.32-1.2A1.5,1.5,0,0,1,43.55,58.81Z"/><path class="cls-2" d="M46.11,53.43c0,.15-.11.22-.22.29a2.73,2.73,0,0,1-1.53.39,2.88,2.88,0,0,1-1.77-.53c-.1-.07-.23-.15-.21-.3s.19-.17.31-.18a11.27,11.27,0,0,1,3.12.12C45.94,53.24,46.08,53.28,46.11,53.43Z"/><path class="cls-2" d="M47.49,63.7a6.55,6.55,0,0,1-1.66,3.76,2.2,2.2,0,0,1-3.57-.21,6.73,6.73,0,0,1-1.39-3.78c0-.23.11-.26.28-.28a3.91,3.91,0,0,0,2-.85c.22-.17.19-.07.22.11.16,1,.34,2.11.51,3.16,0,.18.1.31.27.31a.3.3,0,0,0,.3-.27c.14-1,.26-1.92.39-2.88h0c0-.19,0-.38.07-.57l.41.35a3.75,3.75,0,0,0,1.94.88C47.44,63.46,47.53,63.52,47.49,63.7Z"/><path class="cls-2" d="M50.71,59.12a2.82,2.82,0,0,1-2,2.65,3,3,0,0,1-3.28-1.61,4,4,0,0,1-.53-2c0-.16,0-.33.18-.43a1.59,1.59,0,0,0,0,1.21,7.68,7.68,0,0,0,.72,1.6,3,3,0,0,0,3.33.9,2.62,2.62,0,0,0,1.22-1.57A3.85,3.85,0,0,1,50.71,59.12Z"/><path class="cls-2" d="M52.17,58.57a5.24,5.24,0,0,1-1.43,4.06,3,3,0,0,1-1.12.72.67.67,0,0,0-.51.61,1.39,1.39,0,0,1-.34.95c.08-.45.17-.9.23-1.35a.25.25,0,0,1,.19-.22C51.44,62.54,52.05,60.7,52.17,58.57Z"/><path class="cls-5" d="M50.71,59.12a2.82,2.82,0,0,1-2,2.65,3,3,0,0,1-3.28-1.61,4,4,0,0,1-.53-2c0-.16,0-.33.18-.43a2.75,2.75,0,0,0,2.58,2.53A3.41,3.41,0,0,0,50.71,59.12Z"/><path class="cls-5" d="M43.55,58.81a3,3,0,0,1-4.14,2.47c-1.25-.57-1.5-1.73-1.61-3A2.87,2.87,0,0,0,40.49,60a3.3,3.3,0,0,0,3-1.46,1.15,1.15,0,0,0,.08-.73l0,.08s0,0,0,0a.09.09,0,0,1,0,0A1.5,1.5,0,0,1,43.55,58.81Z"/><path class="cls-5" d="M52.06,60.34a6.38,6.38,0,0,1-2.7,4.35,2.76,2.76,0,0,1-.59.22c.08-.45.17-.9.23-1.35a.25.25,0,0,1,.19-.22c2.25-.8,2.86-2.64,3-4.77A3.43,3.43,0,0,1,52.06,60.34Z"/><path class="cls-5" d="M39.52,64.59a5.52,5.52,0,0,1-2.8-3.72,2.81,2.81,0,0,1-.27-1.59,6.28,6.28,0,0,0,1.18,2.6c.22.24.45.56.73.64C39.46,62.84,39.45,63.72,39.52,64.59Z"/><path class="cls-5" d="M36.43,59.15a.79.79,0,0,1,0-.73C36.4,58.66,36.41,58.9,36.43,59.15Z"/><path class="cls-5" d="M43.31,57.74l.18.06Z"/><path class="cls-5" d="M52.15,58.51l-.06-.17Z"/><path class="cls-1" d="M47.49,63.7a6.55,6.55,0,0,1-1.66,3.76,2.2,2.2,0,0,1-3.57-.21,6.73,6.73,0,0,1-1.39-3.78c0-.23.11-.26.28-.28a3.91,3.91,0,0,0,2-.85c.22-.17.19-.07.22.11.16,1,.34,2.11.51,3.16,0,.18.1.31.27.31a.3.3,0,0,0,.3-.27c.14-1,.26-1.92.39-2.88h0c0-.19,0-.38.07-.57l.41.35a3.75,3.75,0,0,0,1.94.88C47.44,63.46,47.53,63.52,47.49,63.7Z"/><path class="cls-4" d="M46.11,53.43c0,.15-.11.22-.22.29a2.73,2.73,0,0,1-1.53.39,2.88,2.88,0,0,1-1.77-.53c-.1-.07-.23-.15-.21-.3s.19-.17.31-.18a11.27,11.27,0,0,1,3.12.12C45.94,53.24,46.08,53.28,46.11,53.43Z"/></svg>